<svg width="44" height="44" viewBox="0 0 44 44" fill="none" xmlns="http://www.w3.org/2000/svg">
<circle cx="22" cy="22" r="22" fill="#4E47F9"/>
<path d="M22 12C20.1435 12 18.363 12.7375 17.0503 14.0503C15.7375 15.363 15 17.1435 15 19C15 24 22 32 22 32C22 32 29 24 29 19C29 17.1435 28.2625 15.363 26.9497 14.0503C25.637 12.7375 23.8565 12 22 12ZM22 21.5C21.5055 21.5 21.0222 21.3534 20.6111 21.0787C20.2 20.804 19.8795 20.4135 19.6903 19.9567C19.5011 19.4999 19.4516 18.9972 19.548 18.5123C19.6445 18.0273 19.8826 17.5819 20.2322 17.2322C20.5819 16.8826 21.0273 16.6445 21.5123 16.548C21.9972 16.4516 22.4999 16.5011 22.9567 16.6903C23.4135 16.8795 23.804 17.2 24.0787 17.6111C24.3534 18.0222 24.5 18.5055 24.5 19C24.5 19.3283 24.4353 19.6534 24.3097 19.9567C24.1841 20.26 23.9999 20.5356 23.7678 20.7678C23.5356 20.9999 23.26 21.1841 22.9567 21.3097C22.6534 21.4353 22.3283 21.5 22 21.5Z" fill="white"/>
</svg>
