<svg width="44" height="44" viewBox="0 0 44 44" fill="none" xmlns="http://www.w3.org/2000/svg">
<circle cx="22" cy="22" r="22" fill="#4E47F9"/>
<path d="M35.0129 19.3134C35.0131 19.2165 34.9872 19.1213 34.9381 19.0378C34.8889 18.9543 34.8183 18.8855 34.7335 18.8386C34.6487 18.7917 34.5529 18.7684 34.4561 18.771C34.3592 18.7737 34.2649 18.8023 34.1828 18.8539L24.592 25.5252C23.8163 26.0068 22.9214 26.2619 22.0084 26.2619C21.0954 26.2619 20.2006 26.0068 19.4249 25.5252L9.83186 18.8539C9.75033 18.8021 9.65631 18.7734 9.55978 18.7707C9.46324 18.768 9.36778 18.7915 9.28351 18.8387C9.19857 18.8854 9.12778 18.9542 9.07858 19.0377C9.02938 19.1212 9.00359 19.2164 9.00391 19.3134V28.5011C9.00391 29.3633 9.34644 30.1902 9.95614 30.8C10.5659 31.4097 11.3928 31.7522 12.255 31.7522H31.7618C32.6241 31.7522 33.451 31.4097 34.0607 30.8C34.6704 30.1902 35.0129 29.3633 35.0129 28.5011V19.3134Z" fill="white"/>
<path d="M35.013 15.508C35.013 14.6457 34.6704 13.8188 34.0607 13.2091C33.451 12.5994 32.6241 12.2568 31.7618 12.2568H12.255C11.3928 12.2568 10.5659 12.5994 9.95615 13.2091C9.34644 13.8188 9.00391 14.6457 9.00391 15.508C9.00366 15.5353 9.01052 15.5623 9.02382 15.5863C9.03712 15.6102 9.05639 15.6303 9.07977 15.6445L21.1415 23.8634C21.3998 24.0239 21.6978 24.109 22.0019 24.109C22.3061 24.109 22.6041 24.0239 22.8624 23.8634L34.9306 15.6445C34.9549 15.6307 34.9752 15.6109 34.9897 15.587C35.0041 15.5631 35.0121 15.5359 35.013 15.508Z" fill="white"/>
</svg>
