<svg width="44" height="44" viewBox="0 0 44 44" fill="none" xmlns="http://www.w3.org/2000/svg">
<circle cx="22" cy="22" r="22" fill="#4E47F9"/>
<g clip-path="url(#clip0_402_2)">
<path d="M14.8353 23.1785C15.3117 22.7241 15.9449 22.4707 16.6033 22.4707C17.2616 22.4707 17.8948 22.7241 18.3713 23.1785L18.7563 23.5635C20.8503 21.8051 22.7872 19.8678 24.5452 17.7735L24.1603 17.3885C23.6916 16.9197 23.4283 16.2839 23.4283 15.621C23.4283 14.9581 23.6916 14.3223 24.1603 13.8535L26.2812 11.7325C26.5134 11.5002 26.789 11.316 27.0924 11.1904C27.3958 11.0647 27.7209 11 28.0492 11C28.3776 11 28.7027 11.0647 29.0061 11.1904C29.3095 11.316 29.5851 11.5002 29.8173 11.7325L30.9803 12.8955C31.5481 13.4666 31.9019 14.2157 31.9824 15.017C32.0629 15.8183 31.8651 16.6229 31.4223 17.2955C27.9629 22.5101 23.4948 26.9795 18.2813 30.4405C17.6065 30.877 16.8034 31.0711 16.0038 30.9907C15.2042 30.9104 14.4557 30.5605 13.8813 29.9985L12.7173 28.8355C12.485 28.6033 12.3008 28.3277 12.1751 28.0243C12.0495 27.721 11.9848 27.3958 11.9848 27.0675C11.9848 26.7391 12.0495 26.414 12.1751 26.1106C12.3008 25.8072 12.485 25.5316 12.7173 25.2995L14.8353 23.1785Z" fill="white"/>
</g>
<defs>
<clipPath id="clip0_402_2">
<rect width="21" height="21" fill="white" transform="matrix(-1 0 0 1 32 11)"/>
</clipPath>
</defs>
</svg>
